<svg id="ewnzkhIyNjZ1" xmlns="http://www.w3.org/2000/svg" xmlns:xlink="http://www.w3.org/1999/xlink" viewBox="0 0 150 150" shape-rendering="geometricPrecision" text-rendering="geometricPrecision" project-id="b520ba93f1b942809959db94d934ad4c" export-id="d76580bad10845b3b4f18cfc7456f822" cached="false"><path d="M102,139.5c0,5.799-12.0883,10.5-27,10.5s-27-4.701-27-10.5s12.0883-10.5,27-10.5s27,4.701,27,10.5Z" opacity="0.3"/><path d="M75,135c19.8044-27.65,48-38.3188,48-71.1113C123,37,102.505,15,75,15C47.5036,15,27,37,27,63.889C27,96.6771,55.2046,107.359,75,135Z" fill="#ec2a2a"/><path d="M75.0008,139.001c-1.29,0-2.5008-.622-3.2519-1.671-4.7612-6.648-10.0577-12.319-15.4204-17.655-1.7997-1.791-3.6374-3.572-5.4693-5.348-3.528-3.42-7.0348-6.819-10.2081-10.225C30.7774,93.5044,23.001,81.7052,23.001,63.89c0-28.968,22.1665-52.889,52-52.889c29.843,0,52,23.9215,52,52.8887c0,17.8171-7.774,29.6142-17.647,40.2103-3.173,3.406-6.679,6.805-10.2072,10.224-1.8319,1.776-3.6697,3.557-5.4696,5.348-5.3631,5.336-10.6608,11.008-15.4243,17.658-.7512,1.049-1.962,1.671-3.2521,1.671Zm-2.506-7.358c.8481,1.092,1.6844,2.21,2.5062,3.358.8218-1.147,1.6582-2.266,2.5063-3.357c6.0357-7.77,12.6708-14.2,18.963-20.297C110.6,97.6541,123.001,85.6371,123.001,63.8897c0-26.8887-20.495-48.8887-48-48.8887-27.4964,0-48,22-48,48.889c0,21.7445,12.4048,33.7663,26.5349,47.46c6.2918,6.098,12.9257,12.527,18.9589,20.293Z" clip-rule="evenodd" fill="#fff" fill-rule="evenodd"/><path d="M109.001,63.001c0,18.7777-15.2223,34-34,34s-34-15.2223-34-34s15.2223-34,34-34s34,15.2223,34,34Z" fill="#fff"/><path d="M86.1111,60.7778v-17.7778h-22.2222v8.8889h-8.8889L55,83h17.7778v-8.8889h4.4444v8.8889L95,83v-22.2222h-8.8889ZM63.8889,78.5556h-4.4445v-4.4445h4.4445v4.4445Zm0-8.8889h-4.4445v-4.4445h4.4445v4.4445Zm0-8.8889h-4.4445v-4.4445h4.4445v4.4445Zm8.8889,8.8889h-4.4445v-4.4445h4.4445v4.4445Zm0-8.8889h-4.4445v-4.4445h4.4445v4.4445Zm0-8.8889h-4.4445v-4.4445h4.4445v4.4445Zm8.8889,17.7778h-4.4445v-4.4445h4.4445v4.4445Zm0-8.8889h-4.4445v-4.4445h4.4445v4.4445Zm0-8.8889h-4.4445v-4.4445h4.4445v4.4445Zm8.8889,26.6667h-4.4445v-4.4445h4.4445v4.4445Zm0-8.8889h-4.4445v-4.4445h4.4445v4.4445Z" fill="#f90000"/></svg>
