<svg width="150" height="150" viewBox="0 0 150 150" fill="none" xmlns="http://www.w3.org/2000/svg">
<path opacity="0.3" d="M102 139.5C102 145.299 89.9117 150 75 150C60.0883 150 48 145.299 48 139.5C48 133.701 60.0883 129 75 129C89.9117 129 102 133.701 102 139.5Z" fill="black"/>
<path d="M75 135C94.8044 107.35 123 96.6812 123 63.8887C123 37 102.505 15 75 15C47.5036 15 27 37 27 63.889C27 96.6771 55.2046 107.359 75 135Z" fill="#2A7DEC"/>
<path fill-rule="evenodd" clip-rule="evenodd" d="M75.0008 139.001C73.7108 139.001 72.5 138.379 71.7489 137.33C66.9877 130.682 61.6912 125.011 56.3285 119.675C54.5288 117.884 52.6911 116.103 50.8592 114.327C47.3312 110.907 43.8244 107.508 40.6511 104.102C30.7774 93.5044 23.001 81.7052 23.001 63.89C23.001 34.922 45.1675 11.001 75.001 11.001C104.844 11.001 127.001 34.9225 127.001 63.8897C127.001 81.7068 119.227 93.5039 109.354 104.1C106.181 107.506 102.675 110.905 99.1468 114.324C97.3149 116.1 95.4771 117.881 93.6772 119.672C88.3141 125.008 83.0164 130.68 78.2529 137.33C77.5017 138.379 76.2909 139.001 75.0008 139.001ZM72.4948 131.643C73.3429 132.735 74.1792 133.853 75.001 135.001C75.8228 133.854 76.6592 132.735 77.5073 131.644C83.543 123.874 90.1781 117.444 96.4703 111.347C110.6 97.6541 123.001 85.6371 123.001 63.8897C123.001 37.001 102.506 15.001 75.001 15.001C47.5046 15.001 27.001 37.001 27.001 63.89C27.001 85.6345 39.4058 97.6563 53.5359 111.35C59.8277 117.448 66.4616 123.877 72.4948 131.643Z" fill="white"/>
<path d="M109.001 63.001C109.001 81.7787 93.7787 97.001 75.001 97.001C56.2233 97.001 41.001 81.7787 41.001 63.001C41.001 44.2233 56.2233 29.001 75.001 29.001C93.7787 29.001 109.001 44.2233 109.001 63.001Z" fill="white"/>
<path d="M86.1111 60.7778V43H63.8889V51.8889H55V83H72.7778V74.1111H77.2222V83H95V60.7778H86.1111ZM63.8889 78.5556H59.4444V74.1111H63.8889V78.5556ZM63.8889 69.6667H59.4444V65.2222H63.8889V69.6667ZM63.8889 60.7778H59.4444V56.3333H63.8889V60.7778ZM72.7778 69.6667H68.3333V65.2222H72.7778V69.6667ZM72.7778 60.7778H68.3333V56.3333H72.7778V60.7778ZM72.7778 51.8889H68.3333V47.4444H72.7778V51.8889ZM81.6667 69.6667H77.2222V65.2222H81.6667V69.6667ZM81.6667 60.7778H77.2222V56.3333H81.6667V60.7778ZM81.6667 51.8889H77.2222V47.4444H81.6667V51.8889ZM90.5556 78.5556H86.1111V74.1111H90.5556V78.5556ZM90.5556 69.6667H86.1111V65.2222H90.5556V69.6667Z" fill="#2A7DEC"/>
</svg>
